<svg xmlns="http://www.w3.org/2000/svg" width="16" height="20.763" viewBox="0 0 16 20.763">
  <g id="calculator-with-number-one-svgrepo-com" transform="translate(-43.334)">
    <g id="Group_40" data-name="Group 40" transform="translate(43.334)">
      <g id="Group_16" data-name="Group 16" transform="translate(0)">
        <path id="Path_7" data-name="Path 7" d="M57.367,20.763H45.3A1.969,1.969,0,0,1,43.334,18.8V1.967A1.969,1.969,0,0,1,45.3,0H57.367a1.969,1.969,0,0,1,1.967,1.967V18.8A1.969,1.969,0,0,1,57.367,20.763ZM45.3.824a1.144,1.144,0,0,0-1.142,1.142V18.8A1.144,1.144,0,0,0,45.3,19.939H57.367A1.144,1.144,0,0,0,58.51,18.8V1.967A1.144,1.144,0,0,0,57.367.824H45.3Z" transform="translate(-43.334)" fill="#fff"/>
      </g>
      <g id="Group_36" data-name="Group 36" transform="translate(2.031 6.696)">
        <g id="Group_21" data-name="Group 21">
          <g id="Group_17" data-name="Group 17">
            <path id="Path_8" data-name="Path 8" d="M82.482,124.453H80.693a.412.412,0,0,1-.412-.412v-1.789a.412.412,0,0,1,.412-.412h1.789a.412.412,0,0,1,.412.412v1.789A.412.412,0,0,1,82.482,124.453Zm-1.377-.824h.964v-.965h-.964Z" transform="translate(-80.281 -121.84)" fill="#fff"/>
          </g>
          <g id="Group_18" data-name="Group 18" transform="translate(9.326)">
            <path id="Path_9" data-name="Path 9" d="M252.162,124.453h-1.789a.412.412,0,0,1-.412-.412v-1.789a.412.412,0,0,1,.412-.412h1.789a.412.412,0,0,1,.412.412v1.789A.412.412,0,0,1,252.162,124.453Zm-1.377-.824h.964v-.965h-.964Z" transform="translate(-249.961 -121.84)" fill="#fff"/>
          </g>
          <g id="Group_19" data-name="Group 19" transform="translate(3.109)">
            <path id="Path_10" data-name="Path 10" d="M139.043,124.453h-1.789a.412.412,0,0,1-.412-.412v-1.789a.412.412,0,0,1,.412-.412h1.789a.412.412,0,0,1,.412.412v1.789A.412.412,0,0,1,139.043,124.453Zm-1.377-.824h.964v-.965h-.964Z" transform="translate(-136.842 -121.84)" fill="#fff"/>
          </g>
          <g id="Group_20" data-name="Group 20" transform="translate(6.217)">
            <path id="Path_11" data-name="Path 11" d="M195.6,124.453h-1.789a.412.412,0,0,1-.412-.412v-1.789a.412.412,0,0,1,.412-.412H195.6a.412.412,0,0,1,.412.412v1.789A.412.412,0,0,1,195.6,124.453Zm-1.377-.824h.965v-.965h-.965Z" transform="translate(-193.4 -121.84)" fill="#fff"/>
          </g>
        </g>
        <g id="Group_26" data-name="Group 26" transform="translate(0 3.183)">
          <g id="Group_22" data-name="Group 22">
            <path id="Path_12" data-name="Path 12" d="M82.482,182.361H80.693a.412.412,0,0,1-.412-.412V180.16a.412.412,0,0,1,.412-.412h1.789a.412.412,0,0,1,.412.412v1.789A.412.412,0,0,1,82.482,182.361Zm-1.377-.824h.964v-.965h-.964Z" transform="translate(-80.281 -179.748)" fill="#fff"/>
          </g>
          <g id="Group_23" data-name="Group 23" transform="translate(9.326)">
            <path id="Path_13" data-name="Path 13" d="M252.162,182.361h-1.789a.412.412,0,0,1-.412-.412V180.16a.412.412,0,0,1,.412-.412h1.789a.412.412,0,0,1,.412.412v1.789A.412.412,0,0,1,252.162,182.361Zm-1.377-.824h.964v-.965h-.964Z" transform="translate(-249.961 -179.748)" fill="#fff"/>
          </g>
          <g id="Group_24" data-name="Group 24" transform="translate(3.109)">
            <path id="Path_14" data-name="Path 14" d="M139.043,182.361h-1.789a.412.412,0,0,1-.412-.412V180.16a.412.412,0,0,1,.412-.412h1.789a.412.412,0,0,1,.412.412v1.789A.412.412,0,0,1,139.043,182.361Zm-1.377-.824h.964v-.965h-.964Z" transform="translate(-136.842 -179.748)" fill="#fff"/>
          </g>
          <g id="Group_25" data-name="Group 25" transform="translate(6.217)">
            <path id="Path_15" data-name="Path 15" d="M195.6,182.361h-1.789a.412.412,0,0,1-.412-.412V180.16a.412.412,0,0,1,.412-.412H195.6a.412.412,0,0,1,.412.412v1.789A.412.412,0,0,1,195.6,182.361Zm-1.377-.824h.965v-.965h-.965Z" transform="translate(-193.4 -179.748)" fill="#fff"/>
          </g>
        </g>
        <g id="Group_30" data-name="Group 30" transform="translate(0 6.365)">
          <g id="Group_27" data-name="Group 27">
            <path id="Path_16" data-name="Path 16" d="M82.482,240.269H80.693a.412.412,0,0,1-.412-.412v-1.789a.412.412,0,0,1,.412-.412h1.789a.412.412,0,0,1,.412.412v1.789A.412.412,0,0,1,82.482,240.269Zm-1.377-.824h.964v-.964h-.964Z" transform="translate(-80.281 -237.656)" fill="#fff"/>
          </g>
          <g id="Group_28" data-name="Group 28" transform="translate(3.109)">
            <path id="Path_17" data-name="Path 17" d="M139.043,240.269h-1.789a.412.412,0,0,1-.412-.412v-1.789a.412.412,0,0,1,.412-.412h1.789a.412.412,0,0,1,.412.412v1.789A.412.412,0,0,1,139.043,240.269Zm-1.377-.824h.964v-.964h-.964Z" transform="translate(-136.842 -237.656)" fill="#fff"/>
          </g>
          <g id="Group_29" data-name="Group 29" transform="translate(6.217)">
            <path id="Path_18" data-name="Path 18" d="M195.6,240.269h-1.789a.412.412,0,0,1-.412-.412v-1.789a.412.412,0,0,1,.412-.412H195.6a.412.412,0,0,1,.412.412v1.789A.412.412,0,0,1,195.6,240.269Zm-1.377-.824h.965v-.964h-.965Z" transform="translate(-193.4 -237.656)" fill="#fff"/>
          </g>
        </g>
        <g id="Group_35" data-name="Group 35" transform="translate(0 6.365)">
          <g id="Group_31" data-name="Group 31" transform="translate(0 3.183)">
            <path id="Path_19" data-name="Path 19" d="M82.482,298.177H80.693a.412.412,0,0,1-.412-.412v-1.789a.412.412,0,0,1,.412-.412h1.789a.412.412,0,0,1,.412.412v1.789A.412.412,0,0,1,82.482,298.177Zm-1.377-.824h.964v-.965h-.964Z" transform="translate(-80.281 -295.564)" fill="#fff"/>
          </g>
          <g id="Group_32" data-name="Group 32" transform="translate(9.326)">
            <path id="Path_20" data-name="Path 20" d="M252.162,243.452h-1.789a.412.412,0,0,1-.412-.412v-4.972a.412.412,0,0,1,.412-.412h1.789a.412.412,0,0,1,.412.412v4.972A.412.412,0,0,1,252.162,243.452Zm-1.377-.824h.964V238.48h-.964Z" transform="translate(-249.961 -237.656)" fill="#fff"/>
          </g>
          <g id="Group_33" data-name="Group 33" transform="translate(3.109 3.183)">
            <path id="Path_21" data-name="Path 21" d="M139.043,298.177h-1.789a.412.412,0,0,1-.412-.412v-1.789a.412.412,0,0,1,.412-.412h1.789a.412.412,0,0,1,.412.412v1.789A.412.412,0,0,1,139.043,298.177Zm-1.377-.824h.964v-.965h-.964Z" transform="translate(-136.842 -295.564)" fill="#fff"/>
          </g>
          <g id="Group_34" data-name="Group 34" transform="translate(6.217 3.183)">
            <path id="Path_22" data-name="Path 22" d="M195.6,298.177h-1.789a.412.412,0,0,1-.412-.412v-1.789a.412.412,0,0,1,.412-.412H195.6a.412.412,0,0,1,.412.412v1.789A.412.412,0,0,1,195.6,298.177Zm-1.377-.824h.965v-.965h-.965Z" transform="translate(-193.4 -295.564)" fill="#fff"/>
          </g>
        </g>
      </g>
      <g id="Group_39" data-name="Group 39" transform="translate(2.031 1.68)">
        <g id="Group_37" data-name="Group 37">
          <path id="Path_23" data-name="Path 23" d="M91.808,34.853H80.693a.412.412,0,0,1-.412-.412V30.98a.412.412,0,0,1,.412-.412H91.808a.412.412,0,0,1,.412.412v3.461A.412.412,0,0,1,91.808,34.853Zm-10.7-.824H91.4V31.392H81.105Z" transform="translate(-80.281 -30.568)" fill="#fff"/>
        </g>
        <g id="Group_38" data-name="Group 38" transform="translate(9.843 1.213)">
          <path id="Path_24" data-name="Path 24" d="M259.791,54.5a.412.412,0,0,1-.412-.412V53.055a.412.412,0,1,1,.824,0V54.09A.412.412,0,0,1,259.791,54.5Z" transform="translate(-259.379 -52.643)" fill="#fff"/>
        </g>
      </g>
    </g>
  </g>
</svg>
